<svg xmlns="http://www.w3.org/2000/svg" width="34" height="22" viewBox="0 0 34 22"><defs><clipPath id="a"><path fill="#fff" d="M646 3535h28a3 3 0 0 1 3 3v16a3 3 0 0 1-3 3h-28a3 3 0 0 1-3-3v-16a3 3 0 0 1 3-3z"/></clipPath><clipPath id="b"><path fill="#fff" d="M660 3538a8 8 0 1 1 0 16 8 8 0 0 1 0-16z"/></clipPath><clipPath id="c"><path fill="#fff" d="M660 3541a5 5 0 1 1 0 10 5 5 0 0 1 0-10z"/></clipPath></defs><path fill="none" stroke="#000" stroke-miterlimit="50" stroke-width="2" d="M646 3535h28a3 3 0 0 1 3 3v16a3 3 0 0 1-3 3h-28a3 3 0 0 1-3-3v-16a3 3 0 0 1 3-3z" clip-path="url(&quot;#a&quot;)" transform="translate(-643 -3535)"/><path fill="none" stroke="#000" stroke-miterlimit="50" stroke-width="2" d="M660 3538a8 8 0 1 1 0 16 8 8 0 0 1 0-16z" clip-path="url(&quot;#b&quot;)" transform="translate(-643 -3535)"/><path fill="none" stroke="#000" stroke-miterlimit="50" stroke-width="2" d="M660 3541a5 5 0 1 1 0 10 5 5 0 0 1 0-10z" clip-path="url(&quot;#c&quot;)" transform="translate(-643 -3535)"/></svg>